<svg width="100%" viewBox="0 0 680 680" role="img" xmlns="http://www.w3.org/2000/svg">
<title>RAG MVP Proje Mimarisi</title>
<desc>Dosya yükleme ve soru cevaplama akışlarını gösteren katmanlı RAG sistemi mimarisi diyagramı</desc>
<defs>
<marker id="arrow" viewBox="0 0 10 10" refX="8" refY="5" markerWidth="6" markerHeight="6" orient="auto-start-reverse">
<path d="M2 1L8 5L2 9" fill="none" stroke="context-stroke" stroke-width="1.5" stroke-linecap="round" stroke-linejoin="round"/>
</marker>
<mask id="imagine-text-gaps-wenpqb" maskUnits="userSpaceOnUse"><rect x="0" y="0" width="680" height="680" fill="white"/><rect x="278.84637451171875" y="42.4444465637207" width="122.30728912353516" height="19.11111068725586" fill="black" rx="2"/><rect x="280.4106140136719" y="110.44445037841797" width="119.73286437988281" height="19.11111831665039" fill="black" rx="2"/><rect x="214.4470977783203" y="134.38890075683594" width="251.10589599609375" height="17.22222137451172" fill="black" rx="2"/><rect x="258.6146240234375" y="190.44444274902344" width="163.32052612304688" height="19.11111068725586" fill="black" rx="2"/><rect x="202.79649353027344" y="211.38890075683594" width="274.4071044921875" height="17.22222137451172" fill="black" rx="2"/><rect x="114.77648162841797" y="298.4444580078125" width="91.00191497802734" height="19.11111068725586" fill="black" rx="2"/><rect x="99.29644775390625" y="317.3888854980469" width="122.29305267333984" height="17.22222137451172" fill="black" rx="2"/><rect x="122.16970825195312" y="362.4444580078125" width="76.21995544433594" height="19.11111068725586" fill="black" rx="2"/><rect x="95.72526550292969" y="381.3888854980469" width="129.27079010009766" height="17.22222137451172" fill="black" rx="2"/><rect x="115.55122375488281" y="426.4444580078125" width="89.4444808959961" height="19.11111068725586" fill="black" rx="2"/><rect x="78.29731750488281" y="445.3888854980469" width="163.40538024902344" height="17.22222137451172" fill="black" rx="2"/><rect x="476.39495849609375" y="298.4444580078125" width="77.75688171386719" height="19.11111068725586" fill="black" rx="2"/><rect x="425.40972900390625" y="397.388916015625" width="179.78782653808594" height="17.22222137451172" fill="black" rx="2"/><rect x="412.03387451171875" y="325.3888854980469" width="81.93228912353516" height="17.22222137451172" fill="black" rx="2"/><rect x="536.0299682617188" y="325.3888854980469" width="79.94010162353516" height="17.22222137451172" fill="black" rx="2"/><rect x="429.68316650390625" y="363.388916015625" width="47.24741744995117" height="17.22222137451172" fill="black" rx="2"/><rect x="557.685791015625" y="363.388916015625" width="36.62847137451172" height="17.22222137451172" fill="black" rx="2"/><rect x="469.0164794921875" y="448.4444580078125" width="92.52558135986328" height="19.11111068725586" fill="black" rx="2"/><rect x="455.3958435058594" y="467.388916015625" width="119.20832824707031" height="17.22222137451172" fill="black" rx="2"/><rect x="235.29129028320312" y="540.4444580078125" width="209.47805786132812" height="19.11111068725586" fill="black" rx="2"/><rect x="199.12939453125" y="561.3888549804688" width="282.3598937988281" height="17.22222137451172" fill="black" rx="2"/><rect x="259.3967590332031" y="614.4444580078125" width="161.2065887451172" height="19.11111068725586" fill="black" rx="2"/><rect x="242.7656707763672" y="633.388916015625" width="195.3536376953125" height="17.22222137451172" fill="black" rx="2"/></mask></defs>

<rect width="680" height="680" fill="#090b10"/>

<g>
<rect x="240" y="30" width="200" height="44" rx="8" stroke-width="0.5" style="fill:rgb(68, 68, 65);stroke:rgb(180, 178, 169)"/>
<text x="340" y="52" text-anchor="middle" dominant-baseline="central" style="fill:rgb(211, 209, 199);font-family:sans-serif;font-size:14px;font-weight:500;">Tarayıcı / Kullanıcı</text>
</g>

<line x1="340" y1="74" x2="340" y2="100" marker-end="url(#arrow)" style="fill:none;stroke:rgb(156, 154, 146);stroke-width:1.5px;"/>

<g>
<rect x="60" y="100" width="560" height="60" rx="8" stroke-width="0.5" style="fill:rgb(60, 52, 137);stroke:rgb(175, 169, 236);"/>
<text x="340" y="120" text-anchor="middle" dominant-baseline="central" style="fill:rgb(206, 203, 246);font-family:sans-serif;font-size:14px;font-weight:500;">FastAPI · app.py</text>
<text x="340" y="143" text-anchor="middle" dominant-baseline="central" style="fill:rgb(175, 169, 236);font-family:sans-serif;font-size:12px;">/upload  ·  /ask  ·  /documents  ·  /chunks  ·  /health</text>
</g>

<line x1="340" y1="160" x2="340" y2="180" marker-end="url(#arrow)" style="fill:none;stroke:rgb(156, 154, 146);stroke-width:1.5px;"/>

<g>
<rect x="60" y="180" width="560" height="56" rx="8" stroke-width="0.5" style="fill:rgb(8, 80, 65);stroke:rgb(93, 202, 165);"/>
<text x="340" y="200" text-anchor="middle" dominant-baseline="central" style="fill:rgb(159, 225, 203);font-family:sans-serif;font-size:14px;font-weight:500;">RagPipeline · pipeline.py</text>
<text x="340" y="220" text-anchor="middle" dominant-baseline="central" style="fill:rgb(93, 202, 165);font-family:sans-serif;font-size:12px;">ingest_text · ask · fallback retrieval · health_status</text>
</g>

<path d="M 200 236 L 200 268 L 160 268 L 160 290" fill="none" stroke="rgb(194, 192, 182)" stroke-width="1.5" marker-end="url(#arrow)"/>
<path d="M 480 236 L 480 268 L 515 268 L 515 290" fill="none" stroke="rgb(194, 192, 182)" stroke-width="1.5" marker-end="url(#arrow)"/>

<g>
<rect x="50" y="290" width="220" height="44" rx="8" stroke-width="0.5" style="fill:rgb(12, 68, 124);stroke:rgb(133, 183, 235);"/>
<text x="160" y="308" text-anchor="middle" dominant-baseline="central" style="fill:rgb(181, 212, 244);font-family:sans-serif;font-size:14px;font-weight:500;">file_loader.py</text>
<text x="160" y="326" text-anchor="middle" dominant-baseline="central" style="fill:rgb(133, 183, 235);font-family:sans-serif;font-size:12px;">PDF · TXT ayrıştırma</text>
</g>

<line x1="160" y1="334" x2="160" y2="354" marker-end="url(#arrow)" style="fill:none;stroke:rgb(156, 154, 146);stroke-width:1.5px;"/>

<g>
<rect x="50" y="354" width="220" height="44" rx="8" stroke-width="0.5" style="fill:rgb(12, 68, 124);stroke:rgb(133, 183, 235);"/>
<text x="160" y="372" text-anchor="middle" dominant-baseline="central" style="fill:rgb(181, 212, 244);font-family:sans-serif;font-size:14px;font-weight:500;">chunker.py</text>
<text x="160" y="390" text-anchor="middle" dominant-baseline="central" style="fill:rgb(133, 183, 235);font-family:sans-serif;font-size:12px;">RecursiveTextChunker</text>
</g>

<line x1="160" y1="398" x2="160" y2="418" marker-end="url(#arrow)" style="fill:none;stroke:rgb(156, 154, 146);stroke-width:1.5px;"/>

<g>
<rect x="50" y="418" width="220" height="44" rx="8" stroke-width="0.5" style="fill:rgb(12, 68, 124);stroke:rgb(133, 183, 235);"/>
<text x="160" y="436" text-anchor="middle" dominant-baseline="central" style="fill:rgb(181, 212, 244);font-family:sans-serif;font-size:14px;font-weight:500;">embedder.py</text>
<text x="160" y="454" text-anchor="middle" dominant-baseline="central" style="fill:rgb(133, 183, 235);font-family:sans-serif;font-size:12px;">SentenceTransformer embed</text>
</g>

<path d="M 160 462 L 160 512 L 220 512 L 220 530" fill="none" stroke="rgb(194, 192, 182)" stroke-width="1.5" marker-end="url(#arrow)"/>
<line x1="270" y1="440" x2="388" y2="362" fill="none" stroke="rgb(156, 154, 146)" stroke-width="0.8" stroke-dasharray="5 4" marker-end="url(#arrow)" opacity="0.65"/>

<g>
<rect x="390" y="290" width="250" height="132" rx="8" stroke-width="0.5" style="fill:rgb(113, 43, 19);stroke:rgb(240, 153, 123);"/>
<text x="515" y="308" text-anchor="middle" dominant-baseline="central" style="fill:rgb(245, 196, 179);font-family:sans-serif;font-size:14px;font-weight:500;">retriever.py</text>
<text x="515" y="406" text-anchor="middle" dominant-baseline="central" style="fill:rgb(240, 153, 123);font-family:sans-serif;font-size:12px;">expand · hybrid rerank · fallback</text>
</g>

<g>
<rect x="400" y="320" width="107" height="28" rx="4" stroke-width="0.5" style="fill:rgb(99, 56, 6);stroke:rgb(239, 159, 39);"/>
<text x="453" y="334" text-anchor="middle" dominant-baseline="central" style="fill:rgb(239, 159, 39);font-family:sans-serif;font-size:12px;">Dense search</text>
</g>
<g>
<rect x="522" y="320" width="108" height="28" rx="4" stroke-width="0.5" style="fill:rgb(99, 56, 6);stroke:rgb(239, 159, 39);"/>
<text x="576" y="334" text-anchor="middle" dominant-baseline="central" style="fill:rgb(239, 159, 39);font-family:sans-serif;font-size:12px;">Lexical BM25</text>
</g>
<g>
<rect x="400" y="358" width="107" height="28" rx="4" stroke-width="0.5" style="fill:rgb(99, 56, 6);stroke:rgb(239, 159, 39);"/>
<text x="453" y="372" text-anchor="middle" dominant-baseline="central" style="fill:rgb(239, 159, 39);font-family:sans-serif;font-size:12px;">Rerank</text>
</g>
<g>
<rect x="522" y="358" width="108" height="28" rx="4" stroke-width="0.5" style="fill:rgb(99, 56, 6);stroke:rgb(239, 159, 39);"/>
<text x="576" y="372" text-anchor="middle" dominant-baseline="central" style="fill:rgb(239, 159, 39);font-family:sans-serif;font-size:12px;">MMR</text>
</g>

<line x1="515" y1="422" x2="515" y2="440" marker-end="url(#arrow)" style="fill:none;stroke:rgb(156, 154, 146);stroke-width:1.5px;"/>

<g>
<rect x="390" y="440" width="250" height="44" rx="8" stroke-width="0.5" style="fill:rgb(113, 43, 19);stroke:rgb(240, 153, 123);"/>
<text x="515" y="458" text-anchor="middle" dominant-baseline="central" style="fill:rgb(245, 196, 179);font-family:sans-serif;font-size:14px;font-weight:500;">vllm_client.py</text>
<text x="515" y="476" text-anchor="middle" dominant-baseline="central" style="fill:rgb(240, 153, 123);font-family:sans-serif;font-size:12px;">vLLM · cevap üretimi</text>
</g>

<path d="M 390 358 L 350 358 L 350 512 L 340 512 L 340 530" fill="none" stroke="rgb(156, 154, 146)" stroke-width="0.8" stroke-dasharray="5 4" marker-end="url(#arrow)" opacity="0.65"/>

<g>
<rect x="130" y="530" width="420" height="56" rx="8" stroke-width="0.5" style="fill:rgb(39, 80, 10);stroke:rgb(151, 196, 89);"/>
<text x="340" y="550" text-anchor="middle" dominant-baseline="central" style="fill:rgb(192, 221, 151);font-family:sans-serif;font-size:14px;font-weight:500;">qdrant_index.py · QdrantIndexer</text>
<text x="340" y="570" text-anchor="middle" dominant-baseline="central" style="fill:rgb(151, 196, 89);font-family:sans-serif;font-size:12px;">upsert_chunks · retrieve · list_all_docs · delete_doc</text>
</g>

<line x1="340" y1="586" x2="340" y2="606" marker-end="url(#arrow)" style="fill:none;stroke:rgb(156, 154, 146);stroke-width:1.5px;"/>

<g>
<rect x="200" y="606" width="280" height="44" rx="8" stroke-width="0.5" style="fill:rgb(39, 80, 10);stroke:rgb(151, 196, 89);"/>
<text x="340" y="624" text-anchor="middle" dominant-baseline="central" style="fill:rgb(192, 221, 151);font-family:sans-serif;font-size:14px;font-weight:500;">Qdrant Vektör Veritabanı</text>
<text x="340" y="642" text-anchor="middle" dominant-baseline="central" style="fill:rgb(151, 196, 89);font-family:sans-serif;font-size:12px;">Cosine similarity · vektör depolama</text>
</g>

</svg>
